<svg width="1931" height="420" viewBox="0 0 1931 420" fill="none" xmlns="http://www.w3.org/2000/svg">
<g clip-path="url(#clip0_529_6737)">
<path d="M292.611 0C279.271 0 268.466 10.8055 268.466 24.3123V177.999H48.4568V24.3123C48.4568 10.8055 37.6517 0 24.1453 0C10.6389 0 0 10.8055 0 24.3123V380.352C0 393.693 10.8051 404.665 24.1453 404.665C37.4855 404.665 48.4568 393.693 48.4568 380.352V226.458H268.466V380.352C268.466 393.693 279.271 404.665 292.611 404.665C305.951 404.665 316.923 393.693 316.923 380.352V24.3123C316.923 10.8055 306.117 0 292.611 0Z" fill="#027C56"/>
<path d="M831.163 163.786C804.691 137.853 768.66 123.431 731.341 123.972H496.579C459.301 123.431 423.228 137.853 396.756 163.786C385.161 175.215 375.852 188.347 368.995 202.644C367.374 206.01 369.992 209.917 373.691 209.917H421.234C424.101 205.761 427.55 201.979 431.124 198.405C448.62 181.282 472.225 172.098 496.537 172.638H731.299C755.611 172.098 779.216 181.282 796.712 198.405C814.208 215.361 824.098 238.593 824.265 263.071C824.098 287.384 814.166 310.657 796.712 327.572C779.216 344.694 755.611 353.879 731.299 353.338H718.707C711.31 342.367 698.51 335.302 684.297 335.302C670.084 335.302 657.284 342.325 649.887 353.338H578.697C571.134 342.367 558.5 335.302 544.287 335.302C530.074 335.302 517.275 342.325 509.711 353.338H496.537C472.225 353.879 448.62 344.694 431.124 327.572C427.509 323.956 424.101 320.174 421.234 316.06H373.691C369.992 316.06 367.374 319.966 368.995 323.332C375.852 337.629 385.161 350.762 396.756 362.191C423.436 388.331 459.259 402.545 496.579 402.005H509.752C517.316 412.81 530.116 420.041 544.329 420.041C558.542 420.041 571.175 412.852 578.739 402.005H649.928C657.492 412.81 670.125 420.041 684.338 420.041C698.551 420.041 711.185 412.852 718.748 402.005H731.341C768.618 402.545 804.691 388.29 831.163 362.191C857.844 336.05 872.805 300.392 872.971 263.071C872.805 225.792 857.844 189.927 831.163 163.786ZM544.329 402.005C530.822 402.005 520.017 391.033 520.017 377.692C520.017 364.352 530.822 353.38 544.329 353.38C557.835 353.38 568.474 364.352 568.474 377.692C568.474 391.033 557.669 402.005 544.329 402.005ZM684.338 402.005C670.998 402.005 660.027 391.033 660.027 377.692C660.027 364.352 670.998 353.38 684.338 353.38C697.678 353.38 708.65 364.352 708.65 377.692C708.65 391.033 697.678 402.005 684.338 402.005Z" fill="#027C56"/>
<path d="M1038.91 123.972H994.404C970.799 123.972 948.108 133.53 931.36 150.113C914.778 166.861 905.22 189.553 905.22 213.158V380.352C905.22 393.693 916.191 404.664 929.531 404.664C942.872 404.664 953.843 393.693 953.843 380.352V213.158C953.843 202.353 958.165 192.088 965.729 184.524C973.292 176.96 983.557 172.638 994.362 172.638H1038.87C1052.21 172.638 1063.02 161.832 1063.02 148.326C1063.02 134.819 1052.21 124.013 1038.87 124.013L1038.91 123.972Z" fill="#027C56"/>
<path d="M1207.76 121.437C1129.55 121.437 1066.13 184.856 1066.13 263.071C1066.13 341.286 1129.55 404.498 1207.76 404.706C1248.86 404.706 1287.93 386.877 1314.78 355.873C1323.59 345.608 1322.51 330.273 1312.24 321.628C1302.14 312.818 1286.85 313.898 1278 323.956C1260.33 344.32 1234.73 356.04 1207.72 356.04C1165.75 356.04 1128.97 327.946 1118 287.217H1325.04C1338.55 287.217 1349.35 276.412 1349.35 263.071C1349.35 184.856 1285.93 121.437 1207.72 121.437H1207.76ZM1118 238.759C1128.97 198.197 1165.75 169.936 1207.72 169.936C1249.7 169.936 1286.64 198.238 1297.61 238.759H1117.96H1118Z" fill="#027C56"/>
<path d="M1582.33 323.624C1564.66 344.154 1538.9 356.04 1511.68 356.04C1460.31 356.04 1418.71 314.397 1418.71 263.071C1418.71 211.745 1460.35 169.937 1511.68 169.937C1538.9 169.937 1564.66 181.823 1582.33 202.353C1591.14 212.618 1606.47 213.699 1616.57 205.054C1621.43 200.732 1624.51 194.789 1625.05 188.472C1625.42 181.989 1623.43 175.672 1619.11 170.809C1592.26 139.473 1552.99 121.27 1511.72 121.437C1433.51 121.437 1370.09 184.856 1370.09 263.071C1370.09 341.286 1433.51 404.498 1511.72 404.706C1552.99 404.706 1592.26 386.669 1619.11 355.333C1623.43 350.471 1625.42 343.988 1625.05 337.671C1624.51 331.187 1621.43 325.244 1616.57 321.088C1606.47 312.278 1591.18 313.525 1582.33 323.624Z" fill="#027C56"/>
<path d="M1789.37 121.437C1711.16 121.437 1647.74 184.856 1647.74 263.071C1647.74 341.286 1711.16 404.498 1789.37 404.706C1823.61 404.706 1856.57 392.28 1882.34 369.754V380.394C1882.34 393.734 1893.31 404.706 1906.65 404.706C1919.99 404.706 1930.96 393.734 1930.96 380.394V263.113C1930.79 184.898 1867.54 121.478 1789.33 121.478L1789.37 121.437ZM1789.37 356.04C1737.84 356.04 1696.24 314.397 1696.24 263.071C1696.24 211.745 1737.88 169.936 1789.37 169.936C1840.86 169.936 1882.34 211.579 1882.34 263.071C1882.34 314.563 1840.69 356.04 1789.37 356.04Z" fill="#027C56"/>
<path d="M416.496 258.791H352.496C348.756 258.791 345.722 255.757 345.722 252.017C345.722 248.277 348.756 245.243 352.496 245.243H416.496C420.236 245.243 423.27 248.277 423.27 252.017C423.27 255.757 420.236 258.791 416.496 258.791Z" fill="#027C56"/>
<path d="M434.49 236.972H370.491C366.751 236.972 363.717 233.938 363.717 230.198C363.717 226.458 366.751 223.424 370.491 223.424H434.49C438.231 223.424 441.264 226.458 441.264 230.198C441.264 233.938 438.231 236.972 434.49 236.972Z" fill="#027C56"/>
<path d="M452.527 280.651H370.491C366.751 280.651 363.717 277.618 363.717 273.877C363.717 270.137 366.751 267.103 370.491 267.103H452.527C456.267 267.103 459.301 270.137 459.301 273.877C459.301 277.618 456.267 280.651 452.527 280.651Z" fill="#027C56"/>
<path d="M398.46 302.511H334.46C330.72 302.511 327.686 299.477 327.686 295.737C327.686 291.997 330.72 288.963 334.46 288.963H398.46C402.2 288.963 405.234 291.997 405.234 295.737C405.234 299.477 402.2 302.511 398.46 302.511Z" fill="#027C56"/>
<path d="M867.485 172.596C880.912 172.596 891.797 161.711 891.797 148.284C891.797 134.857 880.912 123.972 867.485 123.972C854.058 123.972 843.174 134.857 843.174 148.284C843.174 161.711 854.058 172.596 867.485 172.596Z" fill="#027C56"/>
</g>
<defs>
<clipPath id="clip0_529_6737">
<rect width="1931" height="420" fill="white"/>
</clipPath>
</defs>
</svg>
